<svg width="393" height="91" viewBox="0 0 393 91" fill="none" xmlns="http://www.w3.org/2000/svg">
<circle cx="7.5" cy="49.5" r="49.5" fill="#5752FC" fill-opacity="0.2"/>
<path d="M305.613 25.6638C305.005 25.6638 304.501 25.4798 304.101 25.1118C303.717 24.7278 303.525 24.2558 303.525 23.6958C303.525 23.1358 303.717 22.6718 304.101 22.3038C304.501 21.9198 305.005 21.7278 305.613 21.7278C306.205 21.7278 306.693 21.9198 307.077 22.3038C307.461 22.6718 307.653 23.1358 307.653 23.6958C307.653 24.2558 307.461 24.7278 307.077 25.1118C306.693 25.4798 306.205 25.6638 305.613 25.6638ZM317.566 25.6638C316.958 25.6638 316.454 25.4798 316.054 25.1118C315.67 24.7278 315.478 24.2558 315.478 23.6958C315.478 23.1358 315.67 22.6718 316.054 22.3038C316.454 21.9198 316.958 21.7278 317.566 21.7278C318.158 21.7278 318.646 21.9198 319.03 22.3038C319.414 22.6718 319.606 23.1358 319.606 23.6958C319.606 24.2558 319.414 24.7278 319.03 25.1118C318.646 25.4798 318.158 25.6638 317.566 25.6638ZM329.519 25.6638C328.911 25.6638 328.407 25.4798 328.007 25.1118C327.623 24.7278 327.431 24.2558 327.431 23.6958C327.431 23.1358 327.623 22.6718 328.007 22.3038C328.407 21.9198 328.911 21.7278 329.519 21.7278C330.111 21.7278 330.599 21.9198 330.983 22.3038C331.367 22.6718 331.559 23.1358 331.559 23.6958C331.559 24.2558 331.367 24.7278 330.983 25.1118C330.599 25.4798 330.111 25.6638 329.519 25.6638ZM341.472 25.6638C340.864 25.6638 340.36 25.4798 339.96 25.1118C339.576 24.7278 339.384 24.2558 339.384 23.6958C339.384 23.1358 339.576 22.6718 339.96 22.3038C340.36 21.9198 340.864 21.7278 341.472 21.7278C342.064 21.7278 342.552 21.9198 342.936 22.3038C343.32 22.6718 343.512 23.1358 343.512 23.6958C343.512 24.2558 343.32 24.7278 342.936 25.1118C342.552 25.4798 342.064 25.6638 341.472 25.6638ZM353.425 25.6638C352.817 25.6638 352.313 25.4798 351.913 25.1118C351.529 24.7278 351.337 24.2558 351.337 23.6958C351.337 23.1358 351.529 22.6718 351.913 22.3038C352.313 21.9198 352.817 21.7278 353.425 21.7278C354.017 21.7278 354.505 21.9198 354.889 22.3038C355.273 22.6718 355.465 23.1358 355.465 23.6958C355.465 24.2558 355.273 24.7278 354.889 25.1118C354.505 25.4798 354.017 25.6638 353.425 25.6638ZM365.378 25.6638C364.77 25.6638 364.266 25.4798 363.866 25.1118C363.482 24.7278 363.29 24.2558 363.29 23.6958C363.29 23.1358 363.482 22.6718 363.866 22.3038C364.266 21.9198 364.77 21.7278 365.378 21.7278C365.97 21.7278 366.458 21.9198 366.842 22.3038C367.226 22.6718 367.418 23.1358 367.418 23.6958C367.418 24.2558 367.226 24.7278 366.842 25.1118C366.458 25.4798 365.97 25.6638 365.378 25.6638ZM377.332 25.6638C376.724 25.6638 376.22 25.4798 375.82 25.1118C375.436 24.7278 375.244 24.2558 375.244 23.6958C375.244 23.1358 375.436 22.6718 375.82 22.3038C376.22 21.9198 376.724 21.7278 377.332 21.7278C377.924 21.7278 378.412 21.9198 378.796 22.3038C379.18 22.6718 379.372 23.1358 379.372 23.6958C379.372 24.2558 379.18 24.7278 378.796 25.1118C378.412 25.4798 377.924 25.6638 377.332 25.6638ZM389.285 25.6638C388.677 25.6638 388.173 25.4798 387.773 25.1118C387.389 24.7278 387.197 24.2558 387.197 23.6958C387.197 23.1358 387.389 22.6718 387.773 22.3038C388.173 21.9198 388.677 21.7278 389.285 21.7278C389.877 21.7278 390.365 21.9198 390.749 22.3038C391.133 22.6718 391.325 23.1358 391.325 23.6958C391.325 24.2558 391.133 24.7278 390.749 25.1118C390.365 25.4798 389.877 25.6638 389.285 25.6638ZM401.238 25.6638C400.63 25.6638 400.126 25.4798 399.726 25.1118C399.342 24.7278 399.15 24.2558 399.15 23.6958C399.15 23.1358 399.342 22.6718 399.726 22.3038C400.126 21.9198 400.63 21.7278 401.238 21.7278C401.83 21.7278 402.318 21.9198 402.702 22.3038C403.086 22.6718 403.278 23.1358 403.278 23.6958C403.278 24.2558 403.086 24.7278 402.702 25.1118C402.318 25.4798 401.83 25.6638 401.238 25.6638ZM413.191 25.6638C412.583 25.6638 412.079 25.4798 411.679 25.1118C411.295 24.7278 411.103 24.2558 411.103 23.6958C411.103 23.1358 411.295 22.6718 411.679 22.3038C412.079 21.9198 412.583 21.7278 413.191 21.7278C413.783 21.7278 414.271 21.9198 414.655 22.3038C415.039 22.6718 415.231 23.1358 415.231 23.6958C415.231 24.2558 415.039 24.7278 414.655 25.1118C414.271 25.4798 413.783 25.6638 413.191 25.6638ZM425.144 25.6638C424.536 25.6638 424.032 25.4798 423.632 25.1118C423.248 24.7278 423.056 24.2558 423.056 23.6958C423.056 23.1358 423.248 22.6718 423.632 22.3038C424.032 21.9198 424.536 21.7278 425.144 21.7278C425.736 21.7278 426.224 21.9198 426.608 22.3038C426.992 22.6718 427.184 23.1358 427.184 23.6958C427.184 24.2558 426.992 24.7278 426.608 25.1118C426.224 25.4798 425.736 25.6638 425.144 25.6638ZM437.097 25.6638C436.489 25.6638 435.985 25.4798 435.585 25.1118C435.201 24.7278 435.009 24.2558 435.009 23.6958C435.009 23.1358 435.201 22.6718 435.585 22.3038C435.985 21.9198 436.489 21.7278 437.097 21.7278C437.689 21.7278 438.177 21.9198 438.561 22.3038C438.945 22.6718 439.137 23.1358 439.137 23.6958C439.137 24.2558 438.945 24.7278 438.561 25.1118C438.177 25.4798 437.689 25.6638 437.097 25.6638ZM449.05 25.6638C448.442 25.6638 447.938 25.4798 447.538 25.1118C447.154 24.7278 446.962 24.2558 446.962 23.6958C446.962 23.1358 447.154 22.6718 447.538 22.3038C447.938 21.9198 448.442 21.7278 449.05 21.7278C449.642 21.7278 450.13 21.9198 450.514 22.3038C450.898 22.6718 451.09 23.1358 451.09 23.6958C451.09 24.2558 450.898 24.7278 450.514 25.1118C450.13 25.4798 449.642 25.6638 449.05 25.6638ZM461.003 25.6638C460.395 25.6638 459.891 25.4798 459.491 25.1118C459.107 24.7278 458.915 24.2558 458.915 23.6958C458.915 23.1358 459.107 22.6718 459.491 22.3038C459.891 21.9198 460.395 21.7278 461.003 21.7278C461.595 21.7278 462.083 21.9198 462.467 22.3038C462.851 22.6718 463.043 23.1358 463.043 23.6958C463.043 24.2558 462.851 24.7278 462.467 25.1118C462.083 25.4798 461.595 25.6638 461.003 25.6638ZM305.613 46.6638C305.005 46.6638 304.501 46.4798 304.101 46.1118C303.717 45.7278 303.525 45.2558 303.525 44.6958C303.525 44.1358 303.717 43.6718 304.101 43.3038C304.501 42.9198 305.005 42.7278 305.613 42.7278C306.205 42.7278 306.693 42.9198 307.077 43.3038C307.461 43.6718 307.653 44.1358 307.653 44.6958C307.653 45.2558 307.461 45.7278 307.077 46.1118C306.693 46.4798 306.205 46.6638 305.613 46.6638ZM317.566 46.6638C316.958 46.6638 316.454 46.4798 316.054 46.1118C315.67 45.7278 315.478 45.2558 315.478 44.6958C315.478 44.1358 315.67 43.6718 316.054 43.3038C316.454 42.9198 316.958 42.7278 317.566 42.7278C318.158 42.7278 318.646 42.9198 319.03 43.3038C319.414 43.6718 319.606 44.1358 319.606 44.6958C319.606 45.2558 319.414 45.7278 319.03 46.1118C318.646 46.4798 318.158 46.6638 317.566 46.6638ZM329.519 46.6638C328.911 46.6638 328.407 46.4798 328.007 46.1118C327.623 45.7278 327.431 45.2558 327.431 44.6958C327.431 44.1358 327.623 43.6718 328.007 43.3038C328.407 42.9198 328.911 42.7278 329.519 42.7278C330.111 42.7278 330.599 42.9198 330.983 43.3038C331.367 43.6718 331.559 44.1358 331.559 44.6958C331.559 45.2558 331.367 45.7278 330.983 46.1118C330.599 46.4798 330.111 46.6638 329.519 46.6638ZM341.472 46.6638C340.864 46.6638 340.36 46.4798 339.96 46.1118C339.576 45.7278 339.384 45.2558 339.384 44.6958C339.384 44.1358 339.576 43.6718 339.96 43.3038C340.36 42.9198 340.864 42.7278 341.472 42.7278C342.064 42.7278 342.552 42.9198 342.936 43.3038C343.32 43.6718 343.512 44.1358 343.512 44.6958C343.512 45.2558 343.32 45.7278 342.936 46.1118C342.552 46.4798 342.064 46.6638 341.472 46.6638ZM353.425 46.6638C352.817 46.6638 352.313 46.4798 351.913 46.1118C351.529 45.7278 351.337 45.2558 351.337 44.6958C351.337 44.1358 351.529 43.6718 351.913 43.3038C352.313 42.9198 352.817 42.7278 353.425 42.7278C354.017 42.7278 354.505 42.9198 354.889 43.3038C355.273 43.6718 355.465 44.1358 355.465 44.6958C355.465 45.2558 355.273 45.7278 354.889 46.1118C354.505 46.4798 354.017 46.6638 353.425 46.6638ZM365.378 46.6638C364.77 46.6638 364.266 46.4798 363.866 46.1118C363.482 45.7278 363.29 45.2558 363.29 44.6958C363.29 44.1358 363.482 43.6718 363.866 43.3038C364.266 42.9198 364.77 42.7278 365.378 42.7278C365.97 42.7278 366.458 42.9198 366.842 43.3038C367.226 43.6718 367.418 44.1358 367.418 44.6958C367.418 45.2558 367.226 45.7278 366.842 46.1118C366.458 46.4798 365.97 46.6638 365.378 46.6638ZM377.332 46.6638C376.724 46.6638 376.22 46.4798 375.82 46.1118C375.436 45.7278 375.244 45.2558 375.244 44.6958C375.244 44.1358 375.436 43.6718 375.82 43.3038C376.22 42.9198 376.724 42.7278 377.332 42.7278C377.924 42.7278 378.412 42.9198 378.796 43.3038C379.18 43.6718 379.372 44.1358 379.372 44.6958C379.372 45.2558 379.18 45.7278 378.796 46.1118C378.412 46.4798 377.924 46.6638 377.332 46.6638ZM389.285 46.6638C388.677 46.6638 388.173 46.4798 387.773 46.1118C387.389 45.7278 387.197 45.2558 387.197 44.6958C387.197 44.1358 387.389 43.6718 387.773 43.3038C388.173 42.9198 388.677 42.7278 389.285 42.7278C389.877 42.7278 390.365 42.9198 390.749 43.3038C391.133 43.6718 391.325 44.1358 391.325 44.6958C391.325 45.2558 391.133 45.7278 390.749 46.1118C390.365 46.4798 389.877 46.6638 389.285 46.6638ZM401.238 46.6638C400.63 46.6638 400.126 46.4798 399.726 46.1118C399.342 45.7278 399.15 45.2558 399.15 44.6958C399.15 44.1358 399.342 43.6718 399.726 43.3038C400.126 42.9198 400.63 42.7278 401.238 42.7278C401.83 42.7278 402.318 42.9198 402.702 43.3038C403.086 43.6718 403.278 44.1358 403.278 44.6958C403.278 45.2558 403.086 45.7278 402.702 46.1118C402.318 46.4798 401.83 46.6638 401.238 46.6638ZM413.191 46.6638C412.583 46.6638 412.079 46.4798 411.679 46.1118C411.295 45.7278 411.103 45.2558 411.103 44.6958C411.103 44.1358 411.295 43.6718 411.679 43.3038C412.079 42.9198 412.583 42.7278 413.191 42.7278C413.783 42.7278 414.271 42.9198 414.655 43.3038C415.039 43.6718 415.231 44.1358 415.231 44.6958C415.231 45.2558 415.039 45.7278 414.655 46.1118C414.271 46.4798 413.783 46.6638 413.191 46.6638ZM425.144 46.6638C424.536 46.6638 424.032 46.4798 423.632 46.1118C423.248 45.7278 423.056 45.2558 423.056 44.6958C423.056 44.1358 423.248 43.6718 423.632 43.3038C424.032 42.9198 424.536 42.7278 425.144 42.7278C425.736 42.7278 426.224 42.9198 426.608 43.3038C426.992 43.6718 427.184 44.1358 427.184 44.6958C427.184 45.2558 426.992 45.7278 426.608 46.1118C426.224 46.4798 425.736 46.6638 425.144 46.6638ZM437.097 46.6638C436.489 46.6638 435.985 46.4798 435.585 46.1118C435.201 45.7278 435.009 45.2558 435.009 44.6958C435.009 44.1358 435.201 43.6718 435.585 43.3038C435.985 42.9198 436.489 42.7278 437.097 42.7278C437.689 42.7278 438.177 42.9198 438.561 43.3038C438.945 43.6718 439.137 44.1358 439.137 44.6958C439.137 45.2558 438.945 45.7278 438.561 46.1118C438.177 46.4798 437.689 46.6638 437.097 46.6638ZM449.05 46.6638C448.442 46.6638 447.938 46.4798 447.538 46.1118C447.154 45.7278 446.962 45.2558 446.962 44.6958C446.962 44.1358 447.154 43.6718 447.538 43.3038C447.938 42.9198 448.442 42.7278 449.05 42.7278C449.642 42.7278 450.13 42.9198 450.514 43.3038C450.898 43.6718 451.09 44.1358 451.09 44.6958C451.09 45.2558 450.898 45.7278 450.514 46.1118C450.13 46.4798 449.642 46.6638 449.05 46.6638ZM461.003 46.6638C460.395 46.6638 459.891 46.4798 459.491 46.1118C459.107 45.7278 458.915 45.2558 458.915 44.6958C458.915 44.1358 459.107 43.6718 459.491 43.3038C459.891 42.9198 460.395 42.7278 461.003 42.7278C461.595 42.7278 462.083 42.9198 462.467 43.3038C462.851 43.6718 463.043 44.1358 463.043 44.6958C463.043 45.2558 462.851 45.7278 462.467 46.1118C462.083 46.4798 461.595 46.6638 461.003 46.6638ZM305.613 67.6638C305.005 67.6638 304.501 67.4798 304.101 67.1118C303.717 66.7278 303.525 66.2558 303.525 65.6958C303.525 65.1358 303.717 64.6718 304.101 64.3038C304.501 63.9198 305.005 63.7278 305.613 63.7278C306.205 63.7278 306.693 63.9198 307.077 64.3038C307.461 64.6718 307.653 65.1358 307.653 65.6958C307.653 66.2558 307.461 66.7278 307.077 67.1118C306.693 67.4798 306.205 67.6638 305.613 67.6638ZM317.566 67.6638C316.958 67.6638 316.454 67.4798 316.054 67.1118C315.67 66.7278 315.478 66.2558 315.478 65.6958C315.478 65.1358 315.67 64.6718 316.054 64.3038C316.454 63.9198 316.958 63.7278 317.566 63.7278C318.158 63.7278 318.646 63.9198 319.03 64.3038C319.414 64.6718 319.606 65.1358 319.606 65.6958C319.606 66.2558 319.414 66.7278 319.03 67.1118C318.646 67.4798 318.158 67.6638 317.566 67.6638ZM329.519 67.6638C328.911 67.6638 328.407 67.4798 328.007 67.1118C327.623 66.7278 327.431 66.2558 327.431 65.6958C327.431 65.1358 327.623 64.6718 328.007 64.3038C328.407 63.9198 328.911 63.7278 329.519 63.7278C330.111 63.7278 330.599 63.9198 330.983 64.3038C331.367 64.6718 331.559 65.1358 331.559 65.6958C331.559 66.2558 331.367 66.7278 330.983 67.1118C330.599 67.4798 330.111 67.6638 329.519 67.6638ZM341.472 67.6638C340.864 67.6638 340.36 67.4798 339.96 67.1118C339.576 66.7278 339.384 66.2558 339.384 65.6958C339.384 65.1358 339.576 64.6718 339.96 64.3038C340.36 63.9198 340.864 63.7278 341.472 63.7278C342.064 63.7278 342.552 63.9198 342.936 64.3038C343.32 64.6718 343.512 65.1358 343.512 65.6958C343.512 66.2558 343.32 66.7278 342.936 67.1118C342.552 67.4798 342.064 67.6638 341.472 67.6638ZM353.425 67.6638C352.817 67.6638 352.313 67.4798 351.913 67.1118C351.529 66.7278 351.337 66.2558 351.337 65.6958C351.337 65.1358 351.529 64.6718 351.913 64.3038C352.313 63.9198 352.817 63.7278 353.425 63.7278C354.017 63.7278 354.505 63.9198 354.889 64.3038C355.273 64.6718 355.465 65.1358 355.465 65.6958C355.465 66.2558 355.273 66.7278 354.889 67.1118C354.505 67.4798 354.017 67.6638 353.425 67.6638ZM365.378 67.6638C364.77 67.6638 364.266 67.4798 363.866 67.1118C363.482 66.7278 363.29 66.2558 363.29 65.6958C363.29 65.1358 363.482 64.6718 363.866 64.3038C364.266 63.9198 364.77 63.7278 365.378 63.7278C365.97 63.7278 366.458 63.9198 366.842 64.3038C367.226 64.6718 367.418 65.1358 367.418 65.6958C367.418 66.2558 367.226 66.7278 366.842 67.1118C366.458 67.4798 365.97 67.6638 365.378 67.6638ZM377.332 67.6638C376.724 67.6638 376.22 67.4798 375.82 67.1118C375.436 66.7278 375.244 66.2558 375.244 65.6958C375.244 65.1358 375.436 64.6718 375.82 64.3038C376.22 63.9198 376.724 63.7278 377.332 63.7278C377.924 63.7278 378.412 63.9198 378.796 64.3038C379.18 64.6718 379.372 65.1358 379.372 65.6958C379.372 66.2558 379.18 66.7278 378.796 67.1118C378.412 67.4798 377.924 67.6638 377.332 67.6638ZM389.285 67.6638C388.677 67.6638 388.173 67.4798 387.773 67.1118C387.389 66.7278 387.197 66.2558 387.197 65.6958C387.197 65.1358 387.389 64.6718 387.773 64.3038C388.173 63.9198 388.677 63.7278 389.285 63.7278C389.877 63.7278 390.365 63.9198 390.749 64.3038C391.133 64.6718 391.325 65.1358 391.325 65.6958C391.325 66.2558 391.133 66.7278 390.749 67.1118C390.365 67.4798 389.877 67.6638 389.285 67.6638ZM401.238 67.6638C400.63 67.6638 400.126 67.4798 399.726 67.1118C399.342 66.7278 399.15 66.2558 399.15 65.6958C399.15 65.1358 399.342 64.6718 399.726 64.3038C400.126 63.9198 400.63 63.7278 401.238 63.7278C401.83 63.7278 402.318 63.9198 402.702 64.3038C403.086 64.6718 403.278 65.1358 403.278 65.6958C403.278 66.2558 403.086 66.7278 402.702 67.1118C402.318 67.4798 401.83 67.6638 401.238 67.6638ZM413.191 67.6638C412.583 67.6638 412.079 67.4798 411.679 67.1118C411.295 66.7278 411.103 66.2558 411.103 65.6958C411.103 65.1358 411.295 64.6718 411.679 64.3038C412.079 63.9198 412.583 63.7278 413.191 63.7278C413.783 63.7278 414.271 63.9198 414.655 64.3038C415.039 64.6718 415.231 65.1358 415.231 65.6958C415.231 66.2558 415.039 66.7278 414.655 67.1118C414.271 67.4798 413.783 67.6638 413.191 67.6638ZM425.144 67.6638C424.536 67.6638 424.032 67.4798 423.632 67.1118C423.248 66.7278 423.056 66.2558 423.056 65.6958C423.056 65.1358 423.248 64.6718 423.632 64.3038C424.032 63.9198 424.536 63.7278 425.144 63.7278C425.736 63.7278 426.224 63.9198 426.608 64.3038C426.992 64.6718 427.184 65.1358 427.184 65.6958C427.184 66.2558 426.992 66.7278 426.608 67.1118C426.224 67.4798 425.736 67.6638 425.144 67.6638ZM437.097 67.6638C436.489 67.6638 435.985 67.4798 435.585 67.1118C435.201 66.7278 435.009 66.2558 435.009 65.6958C435.009 65.1358 435.201 64.6718 435.585 64.3038C435.985 63.9198 436.489 63.7278 437.097 63.7278C437.689 63.7278 438.177 63.9198 438.561 64.3038C438.945 64.6718 439.137 65.1358 439.137 65.6958C439.137 66.2558 438.945 66.7278 438.561 67.1118C438.177 67.4798 437.689 67.6638 437.097 67.6638ZM449.05 67.6638C448.442 67.6638 447.938 67.4798 447.538 67.1118C447.154 66.7278 446.962 66.2558 446.962 65.6958C446.962 65.1358 447.154 64.6718 447.538 64.3038C447.938 63.9198 448.442 63.7278 449.05 63.7278C449.642 63.7278 450.13 63.9198 450.514 64.3038C450.898 64.6718 451.09 65.1358 451.09 65.6958C451.09 66.2558 450.898 66.7278 450.514 67.1118C450.13 67.4798 449.642 67.6638 449.05 67.6638ZM461.003 67.6638C460.395 67.6638 459.891 67.4798 459.491 67.1118C459.107 66.7278 458.915 66.2558 458.915 65.6958C458.915 65.1358 459.107 64.6718 459.491 64.3038C459.891 63.9198 460.395 63.7278 461.003 63.7278C461.595 63.7278 462.083 63.9198 462.467 64.3038C462.851 64.6718 463.043 65.1358 463.043 65.6958C463.043 66.2558 462.851 66.7278 462.467 67.1118C462.083 67.4798 461.595 67.6638 461.003 67.6638ZM305.613 88.6638C305.005 88.6638 304.501 88.4798 304.101 88.1118C303.717 87.7278 303.525 87.2558 303.525 86.6958C303.525 86.1358 303.717 85.6718 304.101 85.3038C304.501 84.9198 305.005 84.7278 305.613 84.7278C306.205 84.7278 306.693 84.9198 307.077 85.3038C307.461 85.6718 307.653 86.1358 307.653 86.6958C307.653 87.2558 307.461 87.7278 307.077 88.1118C306.693 88.4798 306.205 88.6638 305.613 88.6638ZM317.566 88.6638C316.958 88.6638 316.454 88.4798 316.054 88.1118C315.67 87.7278 315.478 87.2558 315.478 86.6958C315.478 86.1358 315.67 85.6718 316.054 85.3038C316.454 84.9198 316.958 84.7278 317.566 84.7278C318.158 84.7278 318.646 84.9198 319.03 85.3038C319.414 85.6718 319.606 86.1358 319.606 86.6958C319.606 87.2558 319.414 87.7278 319.03 88.1118C318.646 88.4798 318.158 88.6638 317.566 88.6638ZM329.519 88.6638C328.911 88.6638 328.407 88.4798 328.007 88.1118C327.623 87.7278 327.431 87.2558 327.431 86.6958C327.431 86.1358 327.623 85.6718 328.007 85.3038C328.407 84.9198 328.911 84.7278 329.519 84.7278C330.111 84.7278 330.599 84.9198 330.983 85.3038C331.367 85.6718 331.559 86.1358 331.559 86.6958C331.559 87.2558 331.367 87.7278 330.983 88.1118C330.599 88.4798 330.111 88.6638 329.519 88.6638ZM341.472 88.6638C340.864 88.6638 340.36 88.4798 339.96 88.1118C339.576 87.7278 339.384 87.2558 339.384 86.6958C339.384 86.1358 339.576 85.6718 339.96 85.3038C340.36 84.9198 340.864 84.7278 341.472 84.7278C342.064 84.7278 342.552 84.9198 342.936 85.3038C343.32 85.6718 343.512 86.1358 343.512 86.6958C343.512 87.2558 343.32 87.7278 342.936 88.1118C342.552 88.4798 342.064 88.6638 341.472 88.6638ZM353.425 88.6638C352.817 88.6638 352.313 88.4798 351.913 88.1118C351.529 87.7278 351.337 87.2558 351.337 86.6958C351.337 86.1358 351.529 85.6718 351.913 85.3038C352.313 84.9198 352.817 84.7278 353.425 84.7278C354.017 84.7278 354.505 84.9198 354.889 85.3038C355.273 85.6718 355.465 86.1358 355.465 86.6958C355.465 87.2558 355.273 87.7278 354.889 88.1118C354.505 88.4798 354.017 88.6638 353.425 88.6638ZM365.378 88.6638C364.77 88.6638 364.266 88.4798 363.866 88.1118C363.482 87.7278 363.29 87.2558 363.29 86.6958C363.29 86.1358 363.482 85.6718 363.866 85.3038C364.266 84.9198 364.77 84.7278 365.378 84.7278C365.97 84.7278 366.458 84.9198 366.842 85.3038C367.226 85.6718 367.418 86.1358 367.418 86.6958C367.418 87.2558 367.226 87.7278 366.842 88.1118C366.458 88.4798 365.97 88.6638 365.378 88.6638ZM377.332 88.6638C376.724 88.6638 376.22 88.4798 375.82 88.1118C375.436 87.7278 375.244 87.2558 375.244 86.6958C375.244 86.1358 375.436 85.6718 375.82 85.3038C376.22 84.9198 376.724 84.7278 377.332 84.7278C377.924 84.7278 378.412 84.9198 378.796 85.3038C379.18 85.6718 379.372 86.1358 379.372 86.6958C379.372 87.2558 379.18 87.7278 378.796 88.1118C378.412 88.4798 377.924 88.6638 377.332 88.6638ZM389.285 88.6638C388.677 88.6638 388.173 88.4798 387.773 88.1118C387.389 87.7278 387.197 87.2558 387.197 86.6958C387.197 86.1358 387.389 85.6718 387.773 85.3038C388.173 84.9198 388.677 84.7278 389.285 84.7278C389.877 84.7278 390.365 84.9198 390.749 85.3038C391.133 85.6718 391.325 86.1358 391.325 86.6958C391.325 87.2558 391.133 87.7278 390.749 88.1118C390.365 88.4798 389.877 88.6638 389.285 88.6638ZM401.238 88.6638C400.63 88.6638 400.126 88.4798 399.726 88.1118C399.342 87.7278 399.15 87.2558 399.15 86.6958C399.15 86.1358 399.342 85.6718 399.726 85.3038C400.126 84.9198 400.63 84.7278 401.238 84.7278C401.83 84.7278 402.318 84.9198 402.702 85.3038C403.086 85.6718 403.278 86.1358 403.278 86.6958C403.278 87.2558 403.086 87.7278 402.702 88.1118C402.318 88.4798 401.83 88.6638 401.238 88.6638ZM413.191 88.6638C412.583 88.6638 412.079 88.4798 411.679 88.1118C411.295 87.7278 411.103 87.2558 411.103 86.6958C411.103 86.1358 411.295 85.6718 411.679 85.3038C412.079 84.9198 412.583 84.7278 413.191 84.7278C413.783 84.7278 414.271 84.9198 414.655 85.3038C415.039 85.6718 415.231 86.1358 415.231 86.6958C415.231 87.2558 415.039 87.7278 414.655 88.1118C414.271 88.4798 413.783 88.6638 413.191 88.6638ZM425.144 88.6638C424.536 88.6638 424.032 88.4798 423.632 88.1118C423.248 87.7278 423.056 87.2558 423.056 86.6958C423.056 86.1358 423.248 85.6718 423.632 85.3038C424.032 84.9198 424.536 84.7278 425.144 84.7278C425.736 84.7278 426.224 84.9198 426.608 85.3038C426.992 85.6718 427.184 86.1358 427.184 86.6958C427.184 87.2558 426.992 87.7278 426.608 88.1118C426.224 88.4798 425.736 88.6638 425.144 88.6638ZM437.097 88.6638C436.489 88.6638 435.985 88.4798 435.585 88.1118C435.201 87.7278 435.009 87.2558 435.009 86.6958C435.009 86.1358 435.201 85.6718 435.585 85.3038C435.985 84.9198 436.489 84.7278 437.097 84.7278C437.689 84.7278 438.177 84.9198 438.561 85.3038C438.945 85.6718 439.137 86.1358 439.137 86.6958C439.137 87.2558 438.945 87.7278 438.561 88.1118C438.177 88.4798 437.689 88.6638 437.097 88.6638ZM449.05 88.6638C448.442 88.6638 447.938 88.4798 447.538 88.1118C447.154 87.7278 446.962 87.2558 446.962 86.6958C446.962 86.1358 447.154 85.6718 447.538 85.3038C447.938 84.9198 448.442 84.7278 449.05 84.7278C449.642 84.7278 450.13 84.9198 450.514 85.3038C450.898 85.6718 451.09 86.1358 451.09 86.6958C451.09 87.2558 450.898 87.7278 450.514 88.1118C450.13 88.4798 449.642 88.6638 449.05 88.6638ZM461.003 88.6638C460.395 88.6638 459.891 88.4798 459.491 88.1118C459.107 87.7278 458.915 87.2558 458.915 86.6958C458.915 86.1358 459.107 85.6718 459.491 85.3038C459.891 84.9198 460.395 84.7278 461.003 84.7278C461.595 84.7278 462.083 84.9198 462.467 85.3038C462.851 85.6718 463.043 86.1358 463.043 86.6958C463.043 87.2558 462.851 87.7278 462.467 88.1118C462.083 88.4798 461.595 88.6638 461.003 88.6638Z" fill="#5752FC" fill-opacity="0.5"/>
</svg>
