<svg width="393" height="127" viewBox="0 0 393 127" fill="none" xmlns="http://www.w3.org/2000/svg">
<circle cx="347.5" cy="22.5" r="72.5" fill="#5752FC" fill-opacity="0.2"/>
<circle cx="267.5" cy="77.5" r="49.5" fill="#5752FC" fill-opacity="0.2"/>
<path d="M-32.1559 -3.46874C-32.7547 -3.57431 -33.2191 -3.84304 -33.5491 -4.27491C-33.8606 -4.71975 -33.9677 -5.21792 -33.8705 -5.76941C-33.7732 -6.32091 -33.5036 -6.74452 -33.0615 -7.04025C-32.6009 -7.34895 -32.0712 -7.45052 -31.4724 -7.34494C-30.8894 -7.24214 -30.4422 -6.96832 -30.1307 -6.52347C-29.8164 -6.09438 -29.7079 -5.60409 -29.8052 -5.05259C-29.9024 -4.5011 -30.1735 -4.06961 -30.6183 -3.75813C-31.0604 -3.4624 -31.5729 -3.36594 -32.1559 -3.46874ZM-20.3844 -1.3931C-20.9832 -1.49867 -21.4475 -1.7674 -21.7776 -2.19927C-22.0891 -2.64411 -22.1962 -3.14228 -22.0989 -3.69378C-22.0017 -4.24527 -21.732 -4.66888 -21.29 -4.96461C-20.8294 -5.27331 -20.2997 -5.37488 -19.7009 -5.2693C-19.1179 -5.1665 -18.6707 -4.89268 -18.3592 -4.44783C-18.0449 -4.01874 -17.9364 -3.52845 -18.0336 -2.97696C-18.1309 -2.42546 -18.4019 -1.99398 -18.8468 -1.68249C-19.2888 -1.38676 -19.8014 -1.2903 -20.3844 -1.3931ZM-8.61286 0.682542C-9.21163 0.576964 -9.67602 0.30824 -10.006 -0.123628C-10.3175 -0.568475 -10.4246 -1.06665 -10.3274 -1.61814C-10.2302 -2.16963 -9.9605 -2.59324 -9.51843 -2.88897C-9.05783 -3.19768 -8.52815 -3.29924 -7.92938 -3.19366C-7.34638 -3.09086 -6.89913 -2.81704 -6.58765 -2.37219C-6.27338 -1.9431 -6.16487 -1.45281 -6.26212 -0.901318C-6.35936 -0.349825 -6.6304 0.0816634 -7.07525 0.393149C-7.51732 0.688877 -8.02986 0.785341 -8.61286 0.682542ZM3.15867 2.75818C2.5599 2.6526 2.09551 2.38388 1.76549 1.95201C1.45401 1.50716 1.34688 1.00899 1.44413 0.457501C1.54137 -0.0939915 1.81103 -0.517602 2.2531 -0.81333C2.7137 -1.12204 3.24338 -1.2236 3.84215 -1.11802C4.42515 -1.01522 4.8724 -0.7414 5.18388 -0.296553C5.49815 0.132537 5.60666 0.622828 5.50941 1.17432C5.41217 1.72581 5.14113 2.1573 4.69628 2.46879C4.25421 2.76452 3.74167 2.86098 3.15867 2.75818ZM14.9302 4.83382C14.3314 4.72824 13.867 4.45952 13.537 4.02765C13.2255 3.5828 13.1184 3.08463 13.2157 2.53314C13.3129 1.98165 13.5826 1.55804 14.0246 1.26231C14.4852 0.953601 15.0149 0.852037 15.6137 0.957615C16.1967 1.06041 16.6439 1.33424 16.9554 1.77909C17.2697 2.20818 17.3782 2.69847 17.2809 3.24996C17.1837 3.80145 16.9127 4.23294 16.4678 4.54443C16.0257 4.84015 15.5132 4.93662 14.9302 4.83382ZM26.7017 6.90946C26.103 6.80388 25.6386 6.53516 25.3086 6.10329C24.9971 5.65844 24.8899 5.16027 24.9872 4.60878C25.0844 4.05729 25.3541 3.63367 25.7962 3.33795C26.2568 3.02924 26.7864 2.92768 27.3852 3.03325C27.9682 3.13605 28.4155 3.40988 28.7269 3.85472C29.0412 4.28381 29.1497 4.7741 29.0525 5.3256C28.9552 5.87709 28.6842 6.30858 28.2393 6.62006C27.7973 6.91579 27.2847 7.01226 26.7017 6.90946ZM38.4733 8.9851C37.8745 8.87952 37.4101 8.61079 37.0801 8.17893C36.7686 7.73408 36.6615 7.23591 36.7587 6.68442C36.856 6.13292 37.1256 5.70931 37.5677 5.41359C38.0283 5.10488 38.558 5.00331 39.1567 5.10889C39.7397 5.21169 40.187 5.48551 40.4985 5.93036C40.8127 6.35945 40.9212 6.84974 40.824 7.40124C40.7268 7.95273 40.4557 8.38422 40.0109 8.6957C39.5688 8.99143 39.0563 9.08789 38.4733 8.9851ZM50.2448 11.0607C49.646 10.9552 49.1816 10.6864 48.8516 10.2546C48.5401 9.80972 48.433 9.31155 48.5302 8.76005C48.6275 8.20856 48.8971 7.78495 49.3392 7.48922C49.7998 7.18052 50.3295 7.07895 50.9283 7.18453C51.5113 7.28733 51.9585 7.56115 52.27 8.006C52.5843 8.43509 52.6928 8.92538 52.5955 9.47687C52.4983 10.0284 52.2272 10.4599 51.7824 10.7713C51.3403 11.0671 50.8278 11.1635 50.2448 11.0607ZM62.0163 13.1364C61.4176 13.0308 60.9532 12.7621 60.6231 12.3302C60.3117 11.8854 60.2045 11.3872 60.3018 10.8357C60.399 10.2842 60.6687 9.86059 61.1107 9.56486C61.5713 9.25615 62.101 9.15459 62.6998 9.26017C63.2828 9.36297 63.73 9.63679 64.0415 10.0816C64.3558 10.5107 64.4643 11.001 64.3671 11.5525C64.2698 12.104 63.9988 12.5355 63.5539 12.847C63.1119 13.1427 62.5993 13.2392 62.0163 13.1364ZM73.7878 15.212C73.1891 15.1064 72.7247 14.8377 72.3947 14.4058C72.0832 13.961 71.9761 13.4628 72.0733 12.9113C72.1706 12.3598 72.4402 11.9362 72.8823 11.6405C73.3429 11.3318 73.8726 11.2302 74.4713 11.3358C75.0543 11.4386 75.5016 11.7124 75.8131 12.1573C76.1273 12.5864 76.2358 13.0767 76.1386 13.6282C76.0414 14.1796 75.7703 14.6111 75.3255 14.9226C74.8834 15.2183 74.3709 15.3148 73.7878 15.212ZM85.5594 17.2876C84.9606 17.1821 84.4962 16.9133 84.1662 16.4815C83.8547 16.0366 83.7476 15.5385 83.8448 14.987C83.9421 14.4355 84.2117 14.0119 84.6538 13.7161C85.1144 13.4074 85.6441 13.3059 86.2429 13.4114C86.8259 13.5142 87.2731 13.7881 87.5846 14.2329C87.8989 14.662 88.0074 15.1523 87.9101 15.7038C87.8129 16.2553 87.5418 16.6868 87.097 16.9983C86.6549 17.294 86.1424 17.3904 85.5594 17.2876ZM97.3309 19.3633C96.7321 19.2577 96.2678 18.989 95.9377 18.5571C95.6262 18.1123 95.5191 17.6141 95.6164 17.0626C95.7136 16.5111 95.9833 16.0875 96.4253 15.7918C96.8859 15.4831 97.4156 15.3815 98.0144 15.4871C98.5974 15.5899 99.0446 15.8637 99.3561 16.3086C99.6704 16.7376 99.7789 17.2279 99.6817 17.7794C99.5844 18.3309 99.3134 18.7624 98.8685 19.0739C98.4264 19.3696 97.9139 19.4661 97.3309 19.3633ZM109.102 21.4389C108.504 21.3333 108.039 21.0646 107.709 20.6328C107.398 20.1879 107.291 19.6897 107.388 19.1382C107.485 18.5868 107.755 18.1631 108.197 17.8674C108.657 17.5587 109.187 17.4571 109.786 17.5627C110.369 17.6655 110.816 17.9393 111.128 18.3842C111.442 18.8133 111.55 19.3036 111.453 19.8551C111.356 20.4066 111.085 20.838 110.64 21.1495C110.198 21.4453 109.685 21.5417 109.102 21.4389ZM120.874 23.5146C120.275 23.409 119.811 23.1403 119.481 22.7084C119.169 22.2635 119.062 21.7654 119.159 21.2139C119.257 20.6624 119.526 20.2388 119.968 19.9431C120.429 19.6343 120.959 19.5328 121.557 19.6384C122.14 19.7412 122.588 20.015 122.899 20.4598C123.213 20.8889 123.322 21.3792 123.225 21.9307C123.127 22.4822 122.856 22.9137 122.412 23.2252C121.97 23.5209 121.457 23.6174 120.874 23.5146ZM-35.8025 17.2122C-36.4013 17.1066 -36.8657 16.8379 -37.1957 16.4061C-37.5072 15.9612 -37.6143 15.463 -37.5171 14.9115C-37.4198 14.3601 -37.1502 13.9364 -36.7081 13.6407C-36.2475 13.332 -35.7178 13.2304 -35.1191 13.336C-34.536 13.4388 -34.0888 13.7126 -33.7773 14.1575C-33.4631 14.5866 -33.3545 15.0769 -33.4518 15.6284C-33.549 16.1799 -33.8201 16.6113 -34.2649 16.9228C-34.707 17.2186 -35.2195 17.315 -35.8025 17.2122ZM-24.031 19.2879C-24.6298 19.1823 -25.0942 18.9136 -25.4242 18.4817C-25.7357 18.0368 -25.8428 17.5387 -25.7455 16.9872C-25.6483 16.4357 -25.3786 16.0121 -24.9366 15.7164C-24.476 15.4076 -23.9463 15.3061 -23.3475 15.4117C-22.7645 15.5145 -22.3173 15.7883 -22.0058 16.2331C-21.6915 16.6622 -21.583 17.1525 -21.6803 17.704C-21.7775 18.2555 -22.0485 18.687 -22.4934 18.9985C-22.9355 19.2942 -23.448 19.3907 -24.031 19.2879ZM-12.2595 21.3635C-12.8582 21.2579 -13.3226 20.9892 -13.6527 20.5573C-13.9641 20.1125 -14.0713 19.6143 -13.974 19.0628C-13.8768 18.5113 -13.6071 18.0877 -13.165 17.792C-12.7044 17.4833 -12.1748 17.3817 -11.576 17.4873C-10.993 17.5901 -10.5457 17.8639 -10.2343 18.3088C-9.91999 18.7379 -9.81148 19.2282 -9.90873 19.7796C-10.006 20.3311 -10.277 20.7626 -10.7219 21.0741C-11.1639 21.3698 -11.6765 21.4663 -12.2595 21.3635ZM-0.487945 23.4391C-1.08671 23.3336 -1.5511 23.0648 -1.88112 22.633C-2.19261 22.1881 -2.29973 21.69 -2.20248 21.1385C-2.10524 20.587 -1.83559 20.1634 -1.39352 19.8676C-0.932912 19.5589 -0.403229 19.4574 0.195535 19.5629C0.778541 19.6657 1.22579 19.9396 1.53727 20.3844C1.85154 20.8135 1.96005 21.3038 1.8628 21.8553C1.76556 22.4068 1.49451 22.8383 1.04967 23.1497C0.607599 23.4455 0.0950615 23.5419 -0.487945 23.4391ZM11.2836 25.5148C10.6848 25.4092 10.2204 25.1405 9.89041 24.7086C9.57892 24.2638 9.4718 23.7656 9.56905 23.2141C9.66629 22.6626 9.93594 22.239 10.378 21.9433C10.8386 21.6346 11.3683 21.533 11.9671 21.6386C12.5501 21.7414 12.9973 22.0152 13.3088 22.46C13.6231 22.8891 13.7316 23.3794 13.6343 23.9309C13.5371 24.4824 13.266 24.9139 12.8212 25.2254C12.3791 25.5211 11.8666 25.6176 11.2836 25.5148ZM23.0551 27.5904C22.4564 27.4848 21.992 27.2161 21.6619 26.7842C21.3505 26.3394 21.2433 25.8412 21.3406 25.2897C21.4378 24.7382 21.7075 24.3146 22.1495 24.0189C22.6101 23.7102 23.1398 23.6086 23.7386 23.7142C24.3216 23.817 24.7688 24.0908 25.0803 24.5357C25.3946 24.9648 25.5031 25.4551 25.4059 26.0066C25.3086 26.5581 25.0376 26.9895 24.5927 27.301C24.1507 27.5968 23.6381 27.6932 23.0551 27.5904ZM34.8266 29.6661C34.2279 29.5605 33.7635 29.2918 33.4335 28.8599C33.122 28.415 33.0149 27.9169 33.1121 27.3654C33.2093 26.8139 33.479 26.3903 33.9211 26.0945C34.3817 25.7858 34.9114 25.6843 35.5101 25.7899C36.0931 25.8927 36.5404 26.1665 36.8519 26.6113C37.1661 27.0404 37.2746 27.5307 37.1774 28.0822C37.0801 28.6337 36.8091 29.0652 36.3643 29.3767C35.9222 29.6724 35.4097 29.7689 34.8266 29.6661ZM46.5982 31.7417C45.9994 31.6361 45.535 31.3674 45.205 30.9355C44.8935 30.4907 44.7864 29.9925 44.8836 29.441C44.9809 28.8895 45.2505 28.4659 45.6926 28.1702C46.1532 27.8615 46.6829 27.7599 47.2817 27.8655C47.8647 27.9683 48.3119 28.2421 48.6234 28.687C48.9377 29.1161 49.0462 29.6063 48.9489 30.1578C48.8517 30.7093 48.5806 31.1408 48.1358 31.4523C47.6937 31.748 47.1812 31.8445 46.5982 31.7417ZM58.3697 33.8173C57.7709 33.7118 57.3065 33.443 56.9765 33.0112C56.665 32.5663 56.5579 32.0681 56.6552 31.5167C56.7524 30.9652 57.0221 30.5416 57.4641 30.2458C57.9247 29.9371 58.4544 29.8356 59.0532 29.9411C59.6362 30.0439 60.0834 30.3178 60.3949 30.7626C60.7092 31.1917 60.8177 31.682 60.7205 32.2335C60.6232 32.785 60.3522 33.2165 59.9073 33.5279C59.4652 33.8237 58.9527 33.9201 58.3697 33.8173ZM70.1412 35.893C69.5425 35.7874 69.0781 35.5187 68.7481 35.0868C68.4366 34.642 68.3295 34.1438 68.4267 33.5923C68.5239 33.0408 68.7936 32.6172 69.2357 32.3215C69.6963 32.0128 70.226 31.9112 70.8247 32.0168C71.4077 32.1196 71.855 32.3934 72.1665 32.8382C72.4807 33.2673 72.5892 33.7576 72.492 34.3091C72.3947 34.8606 72.1237 35.2921 71.6788 35.6036C71.2368 35.8993 70.7242 35.9958 70.1412 35.893ZM81.9128 37.9686C81.314 37.863 80.8496 37.5943 80.5196 37.1624C80.2081 36.7176 80.101 36.2194 80.1982 35.6679C80.2955 35.1164 80.5651 34.6928 81.0072 34.3971C81.4678 34.0884 81.9975 33.9868 82.5962 34.0924C83.1792 34.1952 83.6265 34.469 83.938 34.9139C84.2522 35.343 84.3608 35.8333 84.2635 36.3848C84.1663 36.9362 83.8952 37.3677 83.4504 37.6792C83.0083 37.9749 82.4958 38.0714 81.9128 37.9686ZM93.6843 40.0442C93.0855 39.9387 92.6211 39.6699 92.2911 39.2381C91.9796 38.7932 91.8725 38.2951 91.9698 37.7436C92.067 37.1921 92.3367 36.7685 92.7787 36.4727C93.2393 36.164 93.769 36.0625 94.3678 36.168C94.9508 36.2708 95.398 36.5447 95.7095 36.9895C96.0238 37.4186 96.1323 37.9089 96.035 38.4604C95.9378 39.0119 95.6668 39.4434 95.2219 39.7549C94.7798 40.0506 94.2673 40.147 93.6843 40.0442ZM105.456 42.1199C104.857 42.0143 104.393 41.7456 104.063 41.3137C103.751 40.8689 103.644 40.3707 103.741 39.8192C103.839 39.2677 104.108 38.8441 104.55 38.5484C105.011 38.2397 105.541 38.1381 106.139 38.2437C106.722 38.3465 107.17 38.6203 107.481 39.0652C107.795 39.4942 107.904 39.9845 107.807 40.536C107.709 41.0875 107.438 41.519 106.993 41.8305C106.551 42.1262 106.039 42.2227 105.456 42.1199ZM117.227 44.1955C116.629 44.0899 116.164 43.8212 115.834 43.3894C115.523 42.9445 115.416 42.4463 115.513 41.8948C115.61 41.3434 115.88 40.9197 116.322 40.624C116.782 40.3153 117.312 40.2137 117.911 40.3193C118.494 40.4221 118.941 40.6959 119.253 41.1408C119.567 41.5699 119.675 42.0602 119.578 42.6117C119.481 43.1632 119.21 43.5946 118.765 43.9061C118.323 44.2019 117.81 44.2983 117.227 44.1955ZM-39.4491 37.8932C-40.0479 37.7876 -40.5123 37.5189 -40.8423 37.087C-41.1538 36.6422 -41.2609 36.144 -41.1637 35.5925C-41.0664 35.041 -40.7968 34.6174 -40.3547 34.3217C-39.8941 34.013 -39.3644 33.9114 -38.7657 34.017C-38.1827 34.1198 -37.7354 34.3936 -37.4239 34.8385C-37.1097 35.2675 -37.0012 35.7578 -37.0984 36.3093C-37.1956 36.8608 -37.4667 37.2923 -37.9115 37.6038C-38.3536 37.8995 -38.8661 37.996 -39.4491 37.8932ZM-27.6776 39.9688C-28.2764 39.8632 -28.7408 39.5945 -29.0708 39.1627C-29.3823 38.7178 -29.4894 38.2196 -29.3922 37.6681C-29.2949 37.1167 -29.0253 36.693 -28.5832 36.3973C-28.1226 36.0886 -27.5929 35.987 -26.9941 36.0926C-26.4111 36.1954 -25.9639 36.4692 -25.6524 36.9141C-25.3381 37.3432 -25.2296 37.8335 -25.3269 38.385C-25.4241 38.9365 -25.6952 39.3679 -26.14 39.6794C-26.5821 39.9752 -27.0946 40.0716 -27.6776 39.9688ZM-15.9061 42.0445C-16.5048 41.9389 -16.9692 41.6702 -17.2993 41.2383C-17.6107 40.7934 -17.7179 40.2953 -17.6206 39.7438C-17.5234 39.1923 -17.2537 38.7687 -16.8117 38.473C-16.3511 38.1642 -15.8214 38.0627 -15.2226 38.1683C-14.6396 38.2711 -14.1924 38.5449 -13.8809 38.9897C-13.5666 39.4188 -13.4581 39.9091 -13.5553 40.4606C-13.6526 41.0121 -13.9236 41.4436 -14.3685 41.7551C-14.8105 42.0508 -15.3231 42.1473 -15.9061 42.0445ZM-4.13456 44.1201C-4.73332 44.0145 -5.19771 43.7458 -5.52773 43.3139C-5.83922 42.8691 -5.94634 42.3709 -5.8491 41.8194C-5.75185 41.2679 -5.4822 40.8443 -5.04013 40.5486C-4.57952 40.2399 -4.04984 40.1383 -3.45108 40.2439C-2.86807 40.3467 -2.42083 40.6205 -2.10934 41.0654C-1.79508 41.4945 -1.68657 41.9848 -1.78381 42.5362C-1.88105 43.0877 -2.1521 43.5192 -2.59694 43.8307C-3.03901 44.1264 -3.55155 44.2229 -4.13456 44.1201ZM7.63697 46.1957C7.03821 46.0902 6.57382 45.8214 6.2438 45.3896C5.93231 44.9447 5.82519 44.4466 5.92243 43.8951C6.01968 43.3436 6.28933 42.92 6.7314 42.6242C7.19201 42.3155 7.72169 42.214 8.32045 42.3195C8.90346 42.4223 9.3507 42.6962 9.66219 43.141C9.97645 43.5701 10.085 44.0604 9.98772 44.6119C9.89048 45.1634 9.61943 45.5949 9.17459 45.9064C8.73252 46.2021 8.21998 46.2985 7.63697 46.1957ZM19.4085 48.2714C18.8097 48.1658 18.3453 47.8971 18.0153 47.4652C17.7038 47.0204 17.5967 46.5222 17.694 45.9707C17.7912 45.4192 18.0609 44.9956 18.5029 44.6999C18.9635 44.3912 19.4932 44.2896 20.092 44.3952C20.675 44.498 21.1222 44.7718 21.4337 45.2166C21.748 45.6457 21.8565 46.136 21.7593 46.6875C21.662 47.239 21.391 47.6705 20.9461 47.982C20.504 48.2777 19.9915 48.3742 19.4085 48.2714ZM31.18 50.347C30.5813 50.2414 30.1169 49.9727 29.7869 49.5408C29.4754 49.096 29.3683 48.5978 29.4655 48.0463C29.5627 47.4948 29.8324 47.0712 30.2745 46.7755C30.7351 46.4668 31.2647 46.3652 31.8635 46.4708C32.4465 46.5736 32.8938 46.8474 33.2052 47.2923C33.5195 47.7214 33.628 48.2117 33.5308 48.7632C33.4335 49.3147 33.1625 49.7461 32.7176 50.0576C32.2756 50.3534 31.763 50.4498 31.18 50.347ZM42.9516 52.4227C42.3528 52.3171 41.8884 52.0484 41.5584 51.6165C41.2469 51.1716 41.1398 50.6735 41.237 50.122C41.3343 49.5705 41.6039 49.1469 42.046 48.8511C42.5066 48.5424 43.0363 48.4409 43.635 48.5465C44.218 48.6493 44.6653 48.9231 44.9768 49.3679C45.291 49.797 45.3996 50.2873 45.3023 50.8388C45.2051 51.3903 44.934 51.8218 44.4892 52.1333C44.0471 52.429 43.5346 52.5255 42.9516 52.4227ZM54.7231 54.4983C54.1243 54.3927 53.6599 54.124 53.3299 53.6921C53.0184 53.2473 52.9113 52.7491 53.0086 52.1976C53.1058 51.6461 53.3755 51.2225 53.8175 50.9268C54.2781 50.6181 54.8078 50.5165 55.4066 50.6221C55.9896 50.7249 56.4368 50.9987 56.7483 51.4436C57.0626 51.8727 57.1711 52.3629 57.0738 52.9144C56.9766 53.4659 56.7056 53.8974 56.2607 54.2089C55.8186 54.5046 55.3061 54.6011 54.7231 54.4983ZM66.4946 56.5739C65.8959 56.4684 65.4315 56.1996 65.1014 55.7678C64.79 55.3229 64.6828 54.8247 64.7801 54.2733C64.8773 53.7218 65.147 53.2982 65.5891 53.0024C66.0497 52.6937 66.5793 52.5922 67.1781 52.6977C67.7611 52.8005 68.2084 53.0744 68.5198 53.5192C68.8341 53.9483 68.9426 54.4386 68.8454 54.9901C68.7481 55.5416 68.4771 55.9731 68.0322 56.2845C67.5902 56.5803 67.0776 56.6767 66.4946 56.5739ZM78.2662 58.6496C77.6674 58.544 77.203 58.2753 76.873 57.8434C76.5615 57.3986 76.4544 56.9004 76.5516 56.3489C76.6489 55.7974 76.9185 55.3738 77.3606 55.0781C77.8212 54.7694 78.3509 54.6678 78.9496 54.7734C79.5326 54.8762 79.9799 55.15 80.2914 55.5948C80.6056 56.0239 80.7141 56.5142 80.6169 57.0657C80.5197 57.6172 80.2486 58.0487 79.8038 58.3602C79.3617 58.6559 78.8492 58.7524 78.2662 58.6496ZM90.0377 60.7252C89.4389 60.6196 88.9745 60.3509 88.6445 59.919C88.333 59.4742 88.2259 58.976 88.3231 58.4245C88.4204 57.873 88.69 57.4494 89.1321 57.1537C89.5927 56.845 90.1224 56.7434 90.7212 56.849C91.3042 56.9518 91.7514 57.2256 92.0629 57.6705C92.3772 58.0996 92.4857 58.5899 92.3884 59.1414C92.2912 59.6928 92.0201 60.1243 91.5753 60.4358C91.1332 60.7315 90.6207 60.828 90.0377 60.7252ZM101.809 62.8009C101.21 62.6953 100.746 62.4265 100.416 61.9947C100.105 61.5498 99.9974 61.0517 100.095 60.5002C100.192 59.9487 100.462 59.5251 100.904 59.2293C101.364 58.9206 101.894 58.8191 102.493 58.9246C103.076 59.0274 103.523 59.3013 103.834 59.7461C104.149 60.1752 104.257 60.6655 104.16 61.217C104.063 61.7685 103.792 62.2 103.347 62.5115C102.905 62.8072 102.392 62.9036 101.809 62.8009ZM113.581 64.8765C112.982 64.7709 112.518 64.5022 112.188 64.0703C111.876 63.6255 111.769 63.1273 111.866 62.5758C111.963 62.0243 112.233 61.6007 112.675 61.305C113.136 60.9963 113.665 60.8947 114.264 61.0003C114.847 61.1031 115.294 61.3769 115.606 61.8218C115.92 62.2508 116.029 62.7411 115.931 63.2926C115.834 63.8441 115.563 64.2756 115.118 64.5871C114.676 64.8828 114.164 64.9793 113.581 64.8765ZM-43.0958 58.5742C-43.6945 58.4686 -44.1589 58.1999 -44.4889 57.768C-44.8004 57.3231 -44.9075 56.825 -44.8103 56.2735C-44.7131 55.722 -44.4434 55.2984 -44.0013 55.0026C-43.5407 54.6939 -43.011 54.5924 -42.4123 54.6979C-41.8293 54.8007 -41.382 55.0746 -41.0705 55.5194C-40.7563 55.9485 -40.6478 56.4388 -40.745 56.9903C-40.8423 57.5418 -41.1133 57.9733 -41.5581 58.2848C-42.0002 58.5805 -42.5128 58.677 -43.0958 58.5742ZM-31.3242 60.6498C-31.923 60.5442 -32.3874 60.2755 -32.7174 59.8436C-33.0289 59.3988 -33.136 58.9006 -33.0388 58.3491C-32.9415 57.7976 -32.6719 57.374 -32.2298 57.0783C-31.7692 56.7696 -31.2395 56.668 -30.6407 56.7736C-30.0577 56.8764 -29.6105 57.1502 -29.299 57.5951C-28.9847 58.0241 -28.8762 58.5144 -28.9735 59.0659C-29.0707 59.6174 -29.3418 60.0489 -29.7866 60.3604C-30.2287 60.6561 -30.7412 60.7526 -31.3242 60.6498ZM-19.5527 62.7254C-20.1515 62.6199 -20.6159 62.3511 -20.9459 61.9193C-21.2574 61.4744 -21.3645 60.9762 -21.2672 60.4247C-21.17 59.8733 -20.9003 59.4496 -20.4583 59.1539C-19.9977 58.8452 -19.468 58.7436 -18.8692 58.8492C-18.2862 58.952 -17.839 59.2258 -17.5275 59.6707C-17.2132 60.0998 -17.1047 60.5901 -17.202 61.1416C-17.2992 61.6931 -17.5702 62.1246 -18.0151 62.436C-18.4572 62.7318 -18.9697 62.8282 -19.5527 62.7254ZM-7.78117 64.8011C-8.37993 64.6955 -8.84432 64.4268 -9.17434 63.9949C-9.48583 63.55 -9.59295 63.0519 -9.49571 62.5004C-9.39846 61.9489 -9.12881 61.5253 -8.68674 61.2296C-8.22614 60.9208 -7.69645 60.8193 -7.09769 60.9249C-6.51468 61.0277 -6.06744 61.3015 -5.75595 61.7463C-5.44169 62.1754 -5.33318 62.6657 -5.43042 63.2172C-5.52766 63.7687 -5.79871 64.2002 -6.24356 64.5117C-6.68562 64.8074 -7.19816 64.9039 -7.78117 64.8011ZM3.99036 66.8767C3.3916 66.7711 2.92721 66.5024 2.59719 66.0705C2.2857 65.6257 2.17858 65.1275 2.27582 64.576C2.37307 64.0245 2.64272 63.6009 3.08479 63.3052C3.54539 62.9965 4.07508 62.8949 4.67384 63.0005C5.25685 63.1033 5.70409 63.3771 6.01558 63.822C6.32984 64.2511 6.43835 64.7414 6.34111 65.2928C6.24387 65.8443 5.97282 66.2758 5.52797 66.5873C5.08591 66.883 4.57337 66.9795 3.99036 66.8767ZM15.7619 68.9523C15.1631 68.8468 14.6987 68.578 14.3687 68.1462C14.0572 67.7013 13.9501 67.2032 14.0474 66.6517C14.1446 66.1002 14.4143 65.6766 14.8563 65.3808C15.3169 65.0721 15.8466 64.9706 16.4454 65.0761C17.0284 65.1789 17.4756 65.4528 17.7871 65.8976C18.1014 66.3267 18.2099 66.817 18.1126 67.3685C18.0154 67.92 17.7444 68.3515 17.2995 68.663C16.8574 68.9587 16.3449 69.0551 15.7619 68.9523ZM27.5334 71.028C26.9347 70.9224 26.4703 70.6537 26.1402 70.2218C25.8288 69.777 25.7216 69.2788 25.8189 68.7273C25.9161 68.1758 26.1858 67.7522 26.6278 67.4565C27.0885 67.1478 27.6181 67.0462 28.2169 67.1518C28.7999 67.2546 29.2472 67.5284 29.5586 67.9732C29.8729 68.4023 29.9814 68.8926 29.8842 69.4441C29.7869 69.9956 29.5159 70.4271 29.071 70.7386C28.629 71.0343 28.1164 71.1308 27.5334 71.028ZM39.305 73.1036C38.7062 72.998 38.2418 72.7293 37.9118 72.2975C37.6003 71.8526 37.4932 71.3544 37.5904 70.8029C37.6877 70.2514 37.9573 69.8278 38.3994 69.5321C38.86 69.2234 39.3897 69.1218 39.9884 69.2274C40.5714 69.3302 41.0187 69.604 41.3302 70.0489C41.6444 70.478 41.7529 70.9683 41.6557 71.5198C41.5585 72.0713 41.2874 72.5027 40.8426 72.8142C40.4005 73.11 39.888 73.2064 39.305 73.1036ZM51.0765 75.1793C50.4777 75.0737 50.0133 74.805 49.6833 74.3731C49.3718 73.9282 49.2647 73.4301 49.3619 72.8786C49.4592 72.3271 49.7288 71.9035 50.1709 71.6077C50.6315 71.299 51.1612 71.1975 51.76 71.3031C52.343 71.4059 52.7902 71.6797 53.1017 72.1245C53.416 72.5536 53.5245 73.0439 53.4272 73.5954C53.33 74.1469 53.0589 74.5784 52.6141 74.8899C52.172 75.1856 51.6595 75.2821 51.0765 75.1793ZM62.848 77.2549C62.2492 77.1493 61.7849 76.8806 61.4548 76.4487C61.1434 76.0039 61.0362 75.5057 61.1335 74.9542C61.2307 74.4027 61.5004 73.9791 61.9424 73.6834C62.403 73.3747 62.9327 73.2731 63.5315 73.3787C64.1145 73.4815 64.5617 73.7553 64.8732 74.2002C65.1875 74.6293 65.296 75.1195 65.1988 75.671C65.1015 76.2225 64.8305 76.654 64.3856 76.9655C63.9436 77.2612 63.431 77.3577 62.848 77.2549ZM74.6195 79.3305C74.0208 79.225 73.5564 78.9562 73.2264 78.5244C72.9149 78.0795 72.8078 77.5813 72.905 77.0299C73.0022 76.4784 73.2719 76.0548 73.714 75.759C74.1746 75.4503 74.7043 75.3488 75.303 75.4543C75.886 75.5571 76.3333 75.831 76.6448 76.2758C76.959 76.7049 77.0675 77.1952 76.9703 77.7467C76.873 78.2982 76.602 78.7297 76.1572 79.0411C75.7151 79.3369 75.2025 79.4333 74.6195 79.3305ZM86.3911 81.4062C85.7923 81.3006 85.3279 81.0319 84.9979 80.6C84.6864 80.1552 84.5793 79.657 84.6765 79.1055C84.7738 78.554 85.0434 78.1304 85.4855 77.8347C85.9461 77.526 86.4758 77.4244 87.0746 77.53C87.6576 77.6328 88.1048 77.9066 88.4163 78.3514C88.7306 78.7805 88.8391 79.2708 88.7418 79.8223C88.6446 80.3738 88.3735 80.8053 87.9287 81.1168C87.4866 81.4125 86.9741 81.509 86.3911 81.4062ZM98.1626 83.4818C97.5638 83.3762 97.0994 83.1075 96.7694 82.6756C96.4579 82.2308 96.3508 81.7326 96.4481 81.1811C96.5453 80.6296 96.815 80.206 97.257 79.9103C97.7176 79.6016 98.2473 79.5 98.8461 79.6056C99.4291 79.7084 99.8763 79.9822 100.188 80.4271C100.502 80.8562 100.611 81.3465 100.513 81.898C100.416 82.4494 100.145 82.8809 99.7002 83.1924C99.2581 83.4881 98.7456 83.5846 98.1626 83.4818ZM109.934 85.5575C109.335 85.4519 108.871 85.1831 108.541 84.7513C108.229 84.3064 108.122 83.8083 108.22 83.2568C108.317 82.7053 108.586 82.2817 109.029 81.9859C109.489 81.6772 110.019 81.5757 110.618 81.6812C111.201 81.784 111.648 82.0579 111.959 82.5027C112.274 82.9318 112.382 83.4221 112.285 83.9736C112.188 84.5251 111.917 84.9566 111.472 85.2681C111.03 85.5638 110.517 85.6603 109.934 85.5575Z" fill="#5752FC" fill-opacity="0.5"/>
</svg>
